<svg width="1115" height="244" viewBox="0 0 1115 244" fill="none" xmlns="http://www.w3.org/2000/svg">
<path d="M774.696 208.296C775.272 207.293 776.126 206.461 777.256 205.8C778.408 205.117 779.742 204.776 781.256 204.776C782.814 204.776 784.222 205.149 785.48 205.896C786.76 206.642 787.763 207.698 788.488 209.064C789.214 210.408 789.576 211.976 789.576 213.768C789.576 215.538 789.214 217.117 788.488 218.504C787.763 219.89 786.76 220.968 785.48 221.736C784.222 222.504 782.814 222.888 781.256 222.888C779.763 222.888 778.44 222.557 777.288 221.896C776.158 221.213 775.294 220.37 774.696 219.368V230.92H771.784V205.064H774.696V208.296ZM786.6 213.768C786.6 212.445 786.334 211.293 785.8 210.312C785.267 209.33 784.542 208.584 783.624 208.072C782.728 207.56 781.736 207.304 780.648 207.304C779.582 207.304 778.59 207.57 777.672 208.104C776.776 208.616 776.051 209.373 775.496 210.376C774.963 211.357 774.696 212.498 774.696 213.8C774.696 215.122 774.963 216.285 775.496 217.288C776.051 218.269 776.776 219.026 777.672 219.56C778.59 220.072 779.582 220.328 780.648 220.328C781.736 220.328 782.728 220.072 783.624 219.56C784.542 219.026 785.267 218.269 785.8 217.288C786.334 216.285 786.6 215.112 786.6 213.768ZM801.057 222.888C799.415 222.888 797.921 222.514 796.577 221.768C795.255 221.021 794.209 219.965 793.441 218.6C792.695 217.213 792.321 215.613 792.321 213.8C792.321 212.008 792.705 210.429 793.473 209.064C794.263 207.677 795.329 206.621 796.673 205.896C798.017 205.149 799.521 204.776 801.185 204.776C802.849 204.776 804.353 205.149 805.697 205.896C807.041 206.621 808.097 207.666 808.865 209.032C809.655 210.397 810.049 211.986 810.049 213.8C810.049 215.613 809.644 217.213 808.833 218.6C808.044 219.965 806.967 221.021 805.601 221.768C804.236 222.514 802.721 222.888 801.057 222.888ZM801.057 220.328C802.103 220.328 803.084 220.082 804.001 219.592C804.919 219.101 805.655 218.365 806.209 217.384C806.785 216.402 807.073 215.208 807.073 213.8C807.073 212.392 806.796 211.197 806.241 210.216C805.687 209.234 804.961 208.509 804.065 208.04C803.169 207.549 802.199 207.304 801.153 207.304C800.087 207.304 799.105 207.549 798.209 208.04C797.335 208.509 796.631 209.234 796.097 210.216C795.564 211.197 795.297 212.392 795.297 213.8C795.297 215.229 795.553 216.434 796.065 217.416C796.599 218.397 797.303 219.133 798.177 219.624C799.052 220.093 800.012 220.328 801.057 220.328ZM837.238 205.064L831.766 222.6H828.758L824.534 208.68L820.31 222.6H817.302L811.798 205.064H814.774L818.806 219.784L823.158 205.064H826.134L830.39 219.816L834.358 205.064H837.238ZM856.128 213.16C856.128 213.714 856.096 214.301 856.032 214.92H842.016C842.123 216.648 842.709 218.002 843.776 218.984C844.864 219.944 846.176 220.424 847.712 220.424C848.971 220.424 850.016 220.136 850.848 219.56C851.701 218.962 852.299 218.173 852.64 217.192H855.776C855.307 218.877 854.368 220.253 852.96 221.32C851.552 222.365 849.803 222.888 847.712 222.888C846.048 222.888 844.555 222.514 843.232 221.768C841.931 221.021 840.907 219.965 840.16 218.6C839.413 217.213 839.04 215.613 839.04 213.8C839.04 211.986 839.403 210.397 840.128 209.032C840.853 207.666 841.867 206.621 843.168 205.896C844.491 205.149 846.005 204.776 847.712 204.776C849.376 204.776 850.848 205.138 852.128 205.864C853.408 206.589 854.389 207.592 855.072 208.872C855.776 210.13 856.128 211.56 856.128 213.16ZM853.12 212.552C853.12 211.442 852.875 210.493 852.384 209.704C851.893 208.893 851.221 208.285 850.368 207.88C849.536 207.453 848.608 207.24 847.584 207.24C846.112 207.24 844.853 207.709 843.808 208.648C842.784 209.586 842.197 210.888 842.048 212.552H853.12ZM862.884 207.912C863.396 206.909 864.121 206.13 865.06 205.576C866.02 205.021 867.182 204.744 868.548 204.744V207.752H867.78C864.516 207.752 862.884 209.522 862.884 213.064V222.6H859.972V205.064H862.884V207.912ZM887.909 213.16C887.909 213.714 887.877 214.301 887.813 214.92H873.797C873.904 216.648 874.491 218.002 875.557 218.984C876.645 219.944 877.957 220.424 879.493 220.424C880.752 220.424 881.797 220.136 882.629 219.56C883.483 218.962 884.08 218.173 884.421 217.192H887.557C887.088 218.877 886.149 220.253 884.741 221.32C883.333 222.365 881.584 222.888 879.493 222.888C877.829 222.888 876.336 222.514 875.013 221.768C873.712 221.021 872.688 219.965 871.941 218.6C871.195 217.213 870.821 215.613 870.821 213.8C870.821 211.986 871.184 210.397 871.909 209.032C872.635 207.666 873.648 206.621 874.949 205.896C876.272 205.149 877.787 204.776 879.493 204.776C881.157 204.776 882.629 205.138 883.909 205.864C885.189 206.589 886.171 207.592 886.853 208.872C887.557 210.13 887.909 211.56 887.909 213.16ZM884.901 212.552C884.901 211.442 884.656 210.493 884.165 209.704C883.675 208.893 883.003 208.285 882.149 207.88C881.317 207.453 880.389 207.24 879.365 207.24C877.893 207.24 876.635 207.709 875.589 208.648C874.565 209.586 873.979 210.888 873.829 212.552H884.901ZM890.665 213.768C890.665 211.976 891.028 210.408 891.753 209.064C892.478 207.698 893.47 206.642 894.729 205.896C896.009 205.149 897.438 204.776 899.017 204.776C900.382 204.776 901.652 205.096 902.825 205.736C903.998 206.354 904.894 207.176 905.513 208.2V198.92H908.457V222.6H905.513V219.304C904.937 220.349 904.084 221.213 902.953 221.896C901.822 222.557 900.5 222.888 898.985 222.888C897.428 222.888 896.009 222.504 894.729 221.736C893.47 220.968 892.478 219.89 891.753 218.504C891.028 217.117 890.665 215.538 890.665 213.768ZM905.513 213.8C905.513 212.477 905.246 211.325 904.713 210.344C904.18 209.362 903.454 208.616 902.537 208.104C901.641 207.57 900.649 207.304 899.561 207.304C898.473 207.304 897.481 207.56 896.585 208.072C895.689 208.584 894.974 209.33 894.441 210.312C893.908 211.293 893.641 212.445 893.641 213.768C893.641 215.112 893.908 216.285 894.441 217.288C894.974 218.269 895.689 219.026 896.585 219.56C897.481 220.072 898.473 220.328 899.561 220.328C900.649 220.328 901.641 220.072 902.537 219.56C903.454 219.026 904.18 218.269 904.713 217.288C905.246 216.285 905.513 215.122 905.513 213.8ZM924.821 208.328C925.419 207.282 926.293 206.429 927.445 205.768C928.597 205.106 929.909 204.776 931.381 204.776C932.96 204.776 934.379 205.149 935.637 205.896C936.896 206.642 937.888 207.698 938.613 209.064C939.339 210.408 939.701 211.976 939.701 213.768C939.701 215.538 939.339 217.117 938.613 218.504C937.888 219.89 936.885 220.968 935.605 221.736C934.347 222.504 932.939 222.888 931.381 222.888C929.867 222.888 928.533 222.557 927.381 221.896C926.251 221.234 925.397 220.392 924.821 219.368V222.6H921.909V198.92H924.821V208.328ZM936.725 213.768C936.725 212.445 936.459 211.293 935.925 210.312C935.392 209.33 934.667 208.584 933.749 208.072C932.853 207.56 931.861 207.304 930.773 207.304C929.707 207.304 928.715 207.57 927.797 208.104C926.901 208.616 926.176 209.373 925.621 210.376C925.088 211.357 924.821 212.498 924.821 213.8C924.821 215.122 925.088 216.285 925.621 217.288C926.176 218.269 926.901 219.026 927.797 219.56C928.715 220.072 929.707 220.328 930.773 220.328C931.861 220.328 932.853 220.072 933.749 219.56C934.667 219.026 935.392 218.269 935.925 217.288C936.459 216.285 936.725 215.112 936.725 213.768ZM958.638 205.064L948.078 230.856H945.07L948.526 222.408L941.454 205.064H944.686L950.19 219.272L955.63 205.064H958.638Z" fill="white"/>
<path d="M977.239 225.69H970.32V188.6H977.239V211.981L987.472 199.2H995.382L986.444 210.253L995.382 225.738H987.472L982.017 215.994L977.239 222.295V225.69Z" fill="white"/>
<path d="M1084.41 212.183C1084.42 214.081 1084.05 215.963 1083.33 217.722C1082.65 219.37 1081.65 220.874 1080.39 222.153C1079.14 223.403 1077.67 224.406 1076.04 225.106C1074.34 225.814 1072.51 226.178 1070.67 226.178C1068.83 226.178 1067 225.814 1065.31 225.106C1061.98 223.681 1059.35 221.031 1057.98 217.722C1057.25 215.963 1056.89 214.081 1056.9 212.183C1056.88 210.266 1057.25 208.364 1057.98 206.585C1059.34 203.27 1061.97 200.616 1065.31 199.2C1066.99 198.49 1068.81 198.125 1070.64 198.128C1072.48 198.115 1074.31 198.455 1076.02 199.129C1077.66 199.78 1079.15 200.753 1080.39 201.988C1081.66 203.276 1082.66 204.798 1083.33 206.466C1084.06 208.286 1084.42 210.227 1084.41 212.183ZM1077.49 212.183C1077.5 211.173 1077.32 210.17 1076.94 209.229C1076.61 208.38 1076.12 207.603 1075.48 206.942C1074.86 206.317 1074.12 205.819 1073.3 205.477C1071.6 204.811 1069.7 204.811 1067.99 205.477C1067.19 205.819 1066.47 206.318 1065.88 206.942C1065.25 207.607 1064.76 208.383 1064.44 209.229C1064.07 210.171 1063.89 211.174 1063.9 212.183C1063.89 213.157 1064.07 214.125 1064.44 215.03C1064.76 215.875 1065.25 216.651 1065.88 217.317C1066.49 217.958 1067.22 218.472 1068.04 218.829C1068.87 219.206 1069.78 219.397 1070.69 219.389C1071.6 219.397 1072.51 219.223 1073.35 218.877C1074.17 218.531 1074.9 218.034 1075.53 217.412C1076.16 216.756 1076.66 215.983 1076.99 215.137C1077.35 214.193 1077.51 213.19 1077.49 212.183Z" fill="white"/>
<path d="M1023.3 212.183C1023.31 214.081 1022.95 215.963 1022.22 217.722C1021.53 219.371 1020.53 220.875 1019.27 222.153C1018.03 223.406 1016.55 224.409 1014.92 225.106C1013.22 225.814 1011.4 226.179 1009.56 226.179C1007.72 226.179 1005.89 225.814 1004.2 225.106C1000.86 223.687 998.228 221.035 996.857 217.722C996.133 215.963 995.767 214.081 995.78 212.183C995.763 210.266 996.129 208.364 996.857 206.585C998.216 203.268 1000.85 200.614 1004.19 199.2C1005.88 198.484 1007.7 198.119 1009.54 198.129C1011.38 198.115 1013.21 198.455 1014.92 199.129C1016.55 199.775 1018.03 200.744 1019.27 201.976C1020.54 203.267 1021.55 204.793 1022.22 206.466C1022.95 208.286 1023.32 210.227 1023.3 212.183ZM1016.38 212.183C1016.39 211.174 1016.21 210.172 1015.85 209.229C1015.51 208.381 1015.01 207.605 1014.37 206.943C1013.76 206.312 1013.01 205.813 1012.19 205.477C1010.49 204.811 1008.59 204.811 1006.88 205.477C1006.07 205.813 1005.33 206.312 1004.72 206.943C1004.09 207.607 1003.61 208.383 1003.28 209.229C1002.92 210.172 1002.74 211.174 1002.75 212.183C1002.74 213.157 1002.92 214.123 1003.28 215.03C1003.61 215.875 1004.1 216.651 1004.72 217.317C1005.33 217.958 1006.07 218.472 1006.88 218.829C1007.72 219.207 1008.63 219.398 1009.54 219.389C1010.45 219.396 1011.35 219.221 1012.19 218.877C1013.01 218.537 1013.75 218.039 1014.37 217.412C1015.01 216.753 1015.51 215.981 1015.85 215.137C1016.21 214.193 1016.39 213.192 1016.38 212.183Z" fill="white"/>
<path d="M1053.14 225.69H1051.48L1048.81 222.045C1048.15 222.624 1047.46 223.165 1046.74 223.665C1046.01 224.165 1045.24 224.604 1044.43 224.975C1043.63 225.344 1042.8 225.64 1041.95 225.857C1041.11 226.07 1040.24 226.178 1039.37 226.178C1037.54 226.192 1035.72 225.835 1034.03 225.13C1032.39 224.444 1030.9 223.449 1029.65 222.2C1028.38 220.926 1027.38 219.421 1026.7 217.769C1025.96 215.997 1025.6 214.097 1025.62 212.183C1025.6 210.273 1025.96 208.377 1026.7 206.609C1027.38 204.951 1028.38 203.439 1029.65 202.154C1030.9 200.898 1032.39 199.894 1034.03 199.2C1035.72 198.487 1037.54 198.122 1039.37 198.128C1040 198.13 1040.63 198.178 1041.25 198.271C1041.89 198.372 1042.53 198.536 1043.14 198.76C1043.75 198.981 1044.33 199.277 1044.87 199.641C1045.4 200.002 1045.85 200.454 1046.22 200.975V188.6H1053.14V225.69ZM1046.22 212.183C1046.22 211.259 1046.04 210.344 1045.68 209.491C1045.33 208.647 1044.83 207.87 1044.21 207.192C1043.59 206.531 1042.85 205.987 1042.04 205.584C1041.21 205.181 1040.3 204.973 1039.37 204.977C1038.47 204.973 1037.57 205.139 1036.73 205.465C1035.91 205.788 1035.17 206.275 1034.56 206.895C1033.92 207.543 1033.43 208.313 1033.11 209.158C1032.75 210.126 1032.57 211.152 1032.59 212.183C1032.58 213.132 1032.76 214.074 1033.11 214.958C1033.44 215.809 1033.93 216.589 1034.56 217.257C1035.16 217.92 1035.9 218.451 1036.73 218.817C1037.55 219.199 1038.46 219.394 1039.37 219.389C1040.3 219.393 1041.21 219.185 1042.04 218.782C1042.85 218.383 1043.59 217.842 1044.21 217.186C1044.83 216.51 1045.33 215.732 1045.68 214.887C1046.04 214.03 1046.22 213.111 1046.22 212.183Z" fill="white"/>
<path d="M1114.26 212.183C1114.27 214.082 1113.9 215.965 1113.17 217.722C1111.83 221.026 1109.22 223.678 1105.91 225.106C1104.22 225.814 1102.39 226.179 1100.55 226.179C1098.71 226.179 1096.89 225.814 1095.19 225.106C1091.86 223.69 1089.23 221.037 1087.86 217.722C1087.13 215.965 1086.76 214.082 1086.78 212.183C1086.76 210.265 1087.13 208.361 1087.86 206.585C1089.22 203.264 1091.85 200.608 1095.19 199.2C1096.86 198.495 1098.66 198.131 1100.48 198.129C1102.32 198.115 1104.14 198.455 1105.85 199.129C1107.49 199.778 1108.97 200.746 1110.22 201.976C1111.49 203.264 1112.49 204.791 1113.16 206.466C1113.9 208.283 1114.27 210.225 1114.26 212.183ZM1107.34 212.183C1107.35 211.173 1107.17 210.17 1106.79 209.229C1106.46 208.379 1105.96 207.602 1105.32 206.943C1104.71 206.315 1103.97 205.816 1103.15 205.477C1102.31 205.141 1101.4 204.972 1100.49 204.977C1099.58 204.97 1098.68 205.14 1097.84 205.477C1097.03 205.811 1096.29 206.31 1095.68 206.943C1095.05 207.603 1094.55 208.38 1094.23 209.229C1093.86 210.172 1093.68 211.174 1093.69 212.183C1093.68 213.156 1093.86 214.122 1094.21 215.03C1094.54 215.878 1095.04 216.654 1095.67 217.317C1096.28 217.96 1097.01 218.475 1097.83 218.829C1098.66 219.208 1099.57 219.399 1100.48 219.389C1101.38 219.404 1102.28 219.236 1103.11 218.896C1103.94 218.556 1104.69 218.051 1105.32 217.412C1105.96 216.757 1106.46 215.984 1106.79 215.137C1107.16 214.195 1107.34 213.192 1107.33 212.183H1107.34Z" fill="white"/>
<path d="M1086.44 243.389C1084.37 243.394 1082.3 243.274 1080.24 243.032C1078.35 242.807 1076.46 242.484 1074.6 242.067C1072.81 241.674 1071.14 241.221 1069.58 240.721C1068.02 240.221 1066.58 239.697 1065.27 239.173C1062.38 238.022 1059.6 236.619 1056.96 234.98V226.476C1059.87 228.182 1062.91 229.675 1066.04 230.942C1067.41 231.514 1068.9 232.062 1070.48 232.598C1072.07 233.134 1073.75 233.622 1075.48 234.039C1077.25 234.466 1079.04 234.804 1080.85 235.052C1082.7 235.304 1084.57 235.431 1086.44 235.433C1088.38 235.435 1090.33 235.308 1092.26 235.052C1094.05 234.813 1095.83 234.475 1097.59 234.039C1099.19 233.639 1100.77 233.158 1102.32 232.598C1103.79 232.062 1105.15 231.514 1106.37 230.942C1109.14 229.715 1111.79 228.219 1114.26 226.476V234.944C1112.11 236.615 1109.76 238.023 1107.27 239.137C1106.06 239.661 1104.85 240.173 1103.36 240.685C1101.78 241.222 1100.17 241.671 1098.53 242.031C1096.69 242.457 1094.82 242.779 1092.93 242.996C1090.78 243.255 1088.61 243.387 1086.44 243.389Z" fill="white"/>
<path d="M798.32 83.3212L834.204 119.6L914.32 38.5996" stroke="url(#paint0_linear_1026_210)" stroke-width="30" stroke-linecap="round" stroke-linejoin="round"/>
<path d="M199.476 42.4795C209.395 42.4795 218.036 44.4796 225.396 48.4795C232.915 52.4795 238.916 57.5197 243.396 63.5996V44.6396H277.236V177.6H243.396V158.159C239.076 164.399 233.076 169.6 225.396 173.76C217.876 177.76 209.156 179.76 199.236 179.76C188.036 179.76 177.796 176.879 168.516 171.119C159.396 165.359 152.116 157.28 146.676 146.88C141.396 136.32 138.756 124.24 138.756 110.64C138.756 97.1998 141.396 85.2798 146.676 74.8799C152.116 64.48 159.396 56.4799 168.516 50.8799C177.796 45.2799 188.116 42.4796 199.476 42.4795ZM358.532 42.4795C374.372 42.4795 387.012 46.4795 396.452 54.4795C405.892 62.3194 411.092 72.9595 412.052 86.3994H379.893C379.413 81.1195 377.172 76.9599 373.172 73.9199C369.332 70.7199 364.132 69.1192 357.572 69.1191C351.492 69.1191 346.772 70.2395 343.412 72.4795C340.212 74.7195 338.612 77.8398 338.612 81.8398C338.612 86.3196 340.852 89.7592 345.332 92.1592C349.812 94.3992 356.772 96.7192 366.212 99.1191C375.812 101.519 383.733 104 389.973 106.56C396.212 109.12 401.572 113.12 406.052 118.56C410.692 123.84 413.092 130.88 413.252 139.68C413.252 147.36 411.092 154.239 406.772 160.319C402.612 166.399 396.532 171.2 388.532 174.72C380.692 178.08 371.492 179.76 360.933 179.76C350.053 179.76 340.292 177.84 331.652 174C323.012 170 316.132 164.64 311.012 157.92C306.052 151.2 303.333 143.76 302.853 135.6H336.692C337.332 140.719 339.812 144.959 344.132 148.319C348.612 151.679 354.132 153.359 360.692 153.359C367.092 153.359 372.052 152.08 375.572 149.52C379.252 146.96 381.092 143.68 381.092 139.68C381.092 135.36 378.852 132.16 374.372 130.08C370.052 127.84 363.092 125.44 353.492 122.88C343.572 120.48 335.412 117.999 329.012 115.439C322.772 112.879 317.332 108.959 312.692 103.68C308.212 98.3997 305.973 91.2793 305.973 82.3193C305.973 74.9594 308.052 68.2391 312.212 62.1592C316.532 56.0793 322.612 51.2797 330.452 47.7598C338.452 44.2398 347.812 42.4795 358.532 42.4795ZM768.302 94.4287C769.834 98.578 772.256 102.475 775.569 105.824L811.454 142.104C817.465 148.18 825.658 151.6 834.205 151.6C842.753 151.599 850.945 148.18 856.956 142.103L902.152 96.4062C903.018 101.083 903.452 105.987 903.452 111.119C903.452 124.719 900.332 136.719 894.092 147.119C888.012 157.519 879.692 165.599 869.132 171.359C858.732 176.959 847.052 179.76 834.092 179.76C821.292 179.76 809.772 176.959 799.532 171.359C789.292 165.599 781.212 157.519 775.292 147.119C769.532 136.719 766.652 124.719 766.652 111.119C766.652 105.259 767.202 99.6951 768.302 94.4287ZM122.88 37.1992H78.2402V177.6H44.6406V37.1992H0V10.0801H122.88V37.1992ZM474.434 101.04L519.073 44.6396H562.754L504.193 111.359L563.233 177.6H519.554L474.434 120.96V177.6H440.833V0H474.434V101.04ZM684.43 37.1992H614.59V80.1592H668.109V106.8H614.59V177.6H580.989V10.0801H684.43V37.1992ZM741.855 177.6H708.255V0H741.855V177.6ZM970.819 145.92L996.259 44.6396H1031.78L1056.74 145.68L1080.26 44.6396H1112.42L1073.54 177.6H1037.3L1013.06 84.7197L988.819 177.6H952.339L922.42 75.9141L937.071 61.1025C941.706 56.4168 944.596 50.6605 945.747 44.6396H947.299L970.819 145.92ZM208.116 72C201.876 72 196.116 73.5196 190.836 76.5596C185.556 79.5996 181.236 84.08 177.876 90C174.676 95.7599 173.076 102.64 173.076 110.64C173.076 118.64 174.676 125.68 177.876 131.76C181.236 137.68 185.556 142.239 190.836 145.439C196.276 148.639 202.036 150.239 208.116 150.239C214.356 150.239 220.196 148.72 225.636 145.68C231.076 142.48 235.396 137.999 238.596 132.239C241.796 126.319 243.396 119.279 243.396 111.119C243.395 102.959 241.796 95.9992 238.596 90.2393C235.396 84.3194 231.076 79.8397 225.636 76.7998C220.196 73.5999 214.356 72 208.116 72ZM835.052 42.4795C844.326 42.4795 852.971 43.9926 860.985 47.0166L836.466 71.8057C835.841 71.7753 835.21 71.7598 834.572 71.7598C833.696 71.7598 832.832 71.7883 831.98 71.8457L821.071 60.8174C815.192 54.8732 807.559 51.718 799.817 51.3574C799.962 51.2781 800.106 51.1975 800.252 51.1191C810.652 45.3592 822.252 42.4796 835.052 42.4795Z" fill="white"/>
<defs>
<linearGradient id="paint0_linear_1026_210" x1="914.32" y1="79.0996" x2="798.32" y2="79.0996" gradientUnits="userSpaceOnUse">
<stop stop-color="#2564C3"/>
<stop offset="1" stop-color="#6E2EDE"/>
</linearGradient>
</defs>
</svg>
